<?xml version="1.0" standalone="no"?>
<!DOCTYPE svg PUBLIC "-//W3C//DTD SVG 20010904//EN"
 "http://www.w3.org/TR/2001/REC-SVG-20010904/DTD/svg10.dtd">
<svg version="1.0" xmlns="http://www.w3.org/2000/svg"
 width="800.000000pt" height="600.000000pt" viewBox="0 0 800.000000 600.000000"
 preserveAspectRatio="xMidYMid meet">
<metadata>
Created by potrace 1.15, written by Peter Selinger 2001-2017
</metadata>
<g transform="translate(0.000000,600.000000) scale(0.100000,-0.100000)"
fill="#000000" stroke="none">
<path d="M3850 5277 c-37 -13 -295 -155 -600 -331 -294 -170 -665 -384 -824
-475 -314 -180 -382 -233 -439 -338 -57 -106 -57 -102 -57 -1146 0 -1065 -1
-1041 66 -1154 75 -124 1 -77 1089 -704 411 -237 727 -413 765 -426 90 -31
211 -31 300 0 36 12 166 81 290 153 257 150 465 270 940 544 475 274 500 289
552 342 59 60 114 173 128 258 14 90 13 1893 -1 1980 -19 118 -89 239 -177
303 -26 19 -353 211 -727 427 -374 216 -742 428 -818 472 -75 44 -165 89 -198
99 -86 27 -205 25 -289 -4z m260 -549 c30 -10 404 -222 1097 -624 249 -145
286 -175 332 -273 l26 -56 0 -785 0 -785 -32 -65 c-18 -36 -49 -81 -70 -102
-21 -20 -159 -106 -308 -192 l-270 -155 -5 952 -5 952 -25 49 c-46 91 -92 129
-305 251 l-200 116 -3 -376 -2 -375 -340 0 -340 0 0 673 0 672 97 55 c53 30
106 59 118 63 66 27 160 29 235 5z m-961 -2391 c44 -88 94 -130 305 -252 109
-63 200 -115 202 -115 2 0 4 169 4 375 l0 375 340 0 340 0 0 -673 0 -672 -102
-57 c-137 -76 -151 -81 -238 -81 -60 -1 -86 4 -130 25 -44 20 -551 310 -1242
710 -80 46 -131 101 -167 177 l-26 56 0 785 0 785 32 65 c18 36 49 81 70 101
21 21 160 107 308 193 l270 157 5 -953 5 -953 24 -48z"/>
</g>
</svg>
